Coordinates
version=1
nRows=16
nColumns=40
inDegrees=yes

Units are S.I. units (second, meters, Newtons, ...)
If the header above contains a line with 'inDegrees', this indicates whether rotational values are in degrees (yes) or radians (no).

endheader
time	pelvis_tilt	pelvis_list	pelvis_rotation	pelvis_tx	pelvis_ty	pelvis_tz	hip_flexion_r	hip_adduction_r	hip_rotation_r	knee_angle_r	knee_angle_r_beta	ankle_angle_r	subtalar_angle_r	mtp_angle_r	hip_flexion_l	hip_adduction_l	hip_rotation_l	knee_angle_l	knee_angle_l_beta	ankle_angle_l	subtalar_angle_l	mtp_angle_l	lumbar_extension	lumbar_bending	lumbar_rotation	arm_flex_r	arm_add_r	arm_rot_r	elbow_flex_r	pro_sup_r	wrist_flex_r	wrist_dev_r	arm_flex_l	arm_add_l	arm_rot_l	elbow_flex_l	pro_sup_l	wrist_flex_l	wrist_dev_l
      4.12500000	    -15.09974348	      6.69015955	     -1.41876055	     -0.28674971	      0.90378717	     -0.90689328	     36.02230559	    -17.08246981	     -8.72755282	     38.61766515	      0.67400541	     -2.00212090	      0.00000000	      0.00000000	     29.26806988	     -4.70375287	     -9.07338526	     29.56642750	      0.51603151	     -1.97216765	      0.00000000	      0.00000000	    -11.20313943	     -7.01976929	     -9.21517809	    -20.79676953	    -56.40451077	     38.28849551	    108.09719203	     87.07859622	      0.00000000	      0.00000000	    -41.08074883	    -55.73859984	     28.05690721	    109.08517672	     87.36363240	      0.00000000	      0.00000000
      4.13000000	    -14.85047517	      6.31903384	     -1.34290410	     -0.28279744	      0.91595282	     -0.90606230	     33.57574607	    -16.35546859	     -9.72720407	     34.92225061	      0.60950826	     -5.33894634	      0.00000000	      0.00000000	     27.16831998	     -4.63164514	     -8.91930301	     25.91407920	      0.45228600	     -6.05030876	      0.00000000	      0.00000000	    -10.73683324	     -6.68161717	     -9.43623727	    -20.99750249	    -56.67546247	     37.89268924	    108.23590143	     87.06769160	      0.00000000	      0.00000000	    -41.03046311	    -55.35636788	     28.38790073	    108.41640007	     87.36791793	      0.00000000	      0.00000000
      4.13500000	    -14.68157264	      5.81058649	     -1.21882666	     -0.27891300	      0.92814990	     -0.90517664	     31.16925951	    -15.40900260	    -10.62213520	     31.06561786	      0.54219732	     -9.19249668	      0.00000000	      0.00000000	     25.27186429	     -4.70521231	     -8.69616932	     22.33451386	      0.38981080	    -10.74018972	      0.00000000	      0.00000000	    -10.22185178	     -6.18562671	     -9.72116783	    -21.13795705	    -56.84310338	     37.54539702	    108.32017825	     87.06734716	      0.00000000	      0.00000000	    -40.91834862	    -54.79975265	     28.83859011	    107.52493249	     87.36535965	      0.00000000	      0.00000000
      4.14000000	    -14.42393604	      5.33488206	     -1.19692004	     -0.27487841	      0.94067589	     -0.90432757	     28.70406896	    -14.43493692	    -11.54287595	     27.06871983	      0.47243829	    -13.58742584	      0.00000000	      0.00000000	     23.22097829	     -4.75118539	     -8.54729022	     18.53392289	      0.32347798	    -16.01965021	      0.00000000	      0.00000000	     -9.79383788	     -5.73371898	     -9.89510767	    -21.26499468	    -56.94207869	     37.32423061	    108.26348408	     87.07604897	      0.00000000	      0.00000000	    -40.46992776	    -54.11134660	     29.49085638	    106.44091787	     87.38308174	      0.00000000	      0.00000000
      4.14500000	    -14.35784663	      4.94173884	     -1.33103972	     -0.27133888	      0.95298054	     -0.90331236	     26.69149478	    -13.41915393	    -12.14962225	     23.16691642	      0.40433897	    -18.29374180	      0.00000000	      0.00000000	     21.48558179	     -4.81023240	     -8.60983868	     14.76738616	      0.25773951	    -21.77552099	      0.00000000	      0.00000000	     -9.22831227	     -5.36547706	     -9.86945417	    -21.39562522	    -56.89488880	     37.20135860	    108.11066329	     87.07418779	      0.00000000	      0.00000000	    -39.94189809	    -53.40638653	     30.23641258	    105.27983596	     87.38273702	      0.00000000	      0.00000000
      4.15000000	    -13.98838024	      4.58066759	     -1.46554801	     -0.26740814	      0.96570417	     -0.90230975	     24.24747845	    -12.40443378	    -12.71422085	     19.03412430	      0.33220814	    -23.03324367	      0.00000000	      0.00000000	     19.27822223	     -4.78264138	     -8.64872161	     10.63728666	      0.18565568	    -27.59033454	      0.00000000	      0.00000000	     -8.87262643	     -5.01811890	     -9.07776113	    -23.11680141	    -56.34287736	     35.48813366	    107.91155298	     87.07974028	      0.00000000	      0.00000000	    -37.10079090	    -53.64514760	     33.10585595	    104.04647495	     87.35029789	      0.00000000	      0.00000000
      4.15500000	    -14.14193983	      3.97412494	     -1.47678744	     -0.26369338	      0.97773362	     -0.90157958	     22.52328285	    -11.22364609	    -13.66711757	     15.11202932	      0.26375467	    -28.33583234	      0.00000000	      0.00000000	     18.07828161	     -5.10656756	     -9.06302980	      7.30277639	      0.12745749	    -32.76791836	      0.00000000	      0.00000000	     -8.14428875	     -4.35398638	     -9.19680964	    -23.45761531	    -56.03748686	     34.97440535	    107.55471023	     87.08638209	      0.00000000	      0.00000000	    -36.88214702	    -52.35584989	     33.30126772	    102.50700915	     87.34774903	      0.00000000	      0.00000000
      4.16000000	    -13.81348277	      3.65347297	     -1.51272124	     -0.26001680	      0.99035358	     -0.90077343	     20.28518674	    -10.28843133	    -14.25341854	     11.12406008	      0.19415147	    -32.72497222	      0.00000000	      0.00000000	     16.16990912	     -5.07690234	     -9.36788304	      3.74244221	      0.06531794	    -36.24148125	      0.00000000	      0.00000000	     -7.90743769	     -4.04904986	     -8.98008905	    -23.94164335	    -55.49237851	     34.56489045	    107.13115319	     87.11089430	      0.00000000	      0.00000000	    -35.75176850	    -51.80307571	     34.33228684	    101.34591080	     87.33103319	      0.00000000	      0.00000000
      4.16500000	    -13.55952872	      3.04894765	     -1.46251241	     -0.25584718	      1.00304197	     -0.89988104	     18.29099389	     -9.14591102	    -15.83079756	      7.67193557	      0.13390054	    -36.39199706	      0.00000000	      0.00000000	     14.84594982	     -5.40236387	    -10.62093751	      1.55694551	      0.02717383	    -37.19814961	      0.00000000	      0.00000000	     -7.56117931	     -3.37535275	     -7.99666473	    -26.79178724	    -54.09566274	     31.53878005	    106.69843867	     87.13879476	      0.00000000	      0.00000000	    -32.69985144	    -51.72791799	     37.38762518	     99.85250849	     87.28998748	      0.00000000	      0.00000000
      4.17000000	    -13.52518892	      2.62494472	     -1.25821808	     -0.25273682	      1.01526252	     -0.89942421	     16.91878189	     -8.30153647	    -17.99945139	      5.10045120	      0.08901967	    -38.00897728	      0.00000000	      0.00000000	     14.42251745	     -5.58340487	    -12.59509561	      0.74449076	      0.01299381	    -36.54313104	      0.00000000	      0.00000000	     -7.12852799	     -2.92576368	     -8.23207342	    -26.69117332	    -53.39294423	     31.45106611	    106.01904278	     87.15840739	      0.00000000	      0.00000000	    -32.28521070	    -50.68899980	     37.35851616	     98.67853170	     87.27625313	      0.00000000	      0.00000000
      4.17500000	    -13.81711446	      2.39270581	     -1.32054679	     -0.25014608	      1.02695316	     -0.89864277	     16.31524102	     -7.62246351	    -20.24758991	      3.30652927	      0.05770982	    -38.21260576	      0.00000000	      0.00000000	     14.47400322	     -5.63511365	    -15.24536922	      0.59320280	      0.01035334	    -35.30421060	      0.00000000	      0.00000000	     -6.32725164	     -2.72372885	     -8.21633673	    -26.53096151	    -52.54125562	     31.37997706	    105.14868918	     87.14578263	      0.00000000	      0.00000000	    -31.90087880	    -49.67382314	     37.42442937	     97.46152728	     87.25885167	      0.00000000	      0.00000000
      4.18000000	    -13.71403314	      1.98903264	     -1.55641745	     -0.24739131	      1.03896365	     -0.89771673	     15.48478948	     -6.77733344	    -23.13224413	      1.99691957	      0.03485282	    -38.32446245	      0.00000000	      0.00000000	     14.07956339	     -5.86112535	    -18.28369335	      0.59372974	      0.01036254	    -33.98007659	      0.00000000	      0.00000000	     -6.00195198	     -2.30869489	     -7.95089983	    -26.41197098	    -51.67915709	     31.30461871	    104.33427467	     87.14528924	      0.00000000	      0.00000000	    -31.23769999	    -48.68556027	     37.60054134	     96.37593567	     87.25326696	      0.00000000	      0.00000000
      4.18500000	    -13.87042479	      1.66356720	     -1.71169870	     -0.24548755	      1.05037034	     -0.89679617	     15.18822791	     -6.04576640	    -25.21189725	      1.38727990	      0.02421260	    -37.63222469	      0.00000000	      0.00000000	     14.03569256	     -5.99962826	    -20.52706760	      0.67144167	      0.01171887	    -33.23406856	      0.00000000	      0.00000000	     -5.45226534	     -2.01378037	     -7.76473179	    -26.18077241	    -50.67070410	     31.15100258	    103.29364126	     87.11837250	      0.00000000	      0.00000000	    -30.80032216	    -47.90500532	     37.56122330	     95.52995457	     87.22563670	      0.00000000	      0.00000000
      4.19000000	    -13.75933100	      1.39175892	     -1.96198903	     -0.24361559	      1.06181843	     -0.89592718	     15.03397610	     -5.55918299	    -27.98012595	      1.69028044	      0.02950096	    -37.29817076	      0.00000000	      0.00000000	     13.77849681	     -6.08693258	    -23.26559889	      0.98377572	      0.01717013	    -33.58242380	      0.00000000	      0.00000000	     -5.27720951	     -1.74538277	     -7.46341866	    -26.03057127	    -49.68902533	     30.89052510	    102.45722928	     87.11173582	      0.00000000	      0.00000000	    -30.11881678	    -47.08579942	     37.78748128	     94.66848096	     87.22998112	      0.00000000	      0.00000000
      4.19500000	    -13.72436236	      1.35269757	     -2.05179725	     -0.24264242	      1.07283400	     -0.89521606	     15.02397010	     -5.35844510	    -29.61801599	      2.16803815	      0.03783940	    -36.57708994	      0.00000000	      0.00000000	     13.74796180	     -5.94912375	    -25.26320832	      1.39692907	      0.02438101	    -34.74750566	      0.00000000	      0.00000000	     -5.06076218	     -1.71152849	     -6.53363568	    -27.39752247	    -48.12747158	     28.99942863	    101.70687408	     87.10719423	      0.00000000	      0.00000000	    -27.72076847	    -47.21646656	     39.92812828	     94.00915090	     87.19513999	      0.00000000	      0.00000000
      4.20000000	    -13.60024437	      1.47687405	     -2.27042741	     -0.24184426	      1.08375040	     -0.89448558	     14.97625258	     -5.33249242	    -30.39755248	      2.71408119	      0.04736965	    -36.66856238	      0.00000000	      0.00000000	     13.76456877	     -5.77558442	    -26.49187965	      2.24005187	      0.03909628	    -36.25761577	      0.00000000	      0.00000000	     -5.03351226	     -1.90224254	     -6.28623604	    -26.98006610	    -47.06974485	     28.88909250	    100.70721210	     87.08175490	      0.00000000	      0.00000000	    -27.28111293	    -46.70354761	     39.75313005	     93.44304223	     87.16919756	      0.00000000	      0.00000000
